<svg width="40" height="40" viewBox="0 0 40 40" fill="none" xmlns="http://www.w3.org/2000/svg">
<mask id="mask0_111_2757" style="mask-type:alpha" maskUnits="userSpaceOnUse" x="8" y="8" width="24" height="24">
<rect x="8" y="8" width="24" height="24" fill="#D9D9D9"/>
</mask>
<g mask="url(#mask0_111_2757)">
<path d="M12.5 26.8846V25.3846H14.3077V17.9231C14.3077 16.5782 14.7228 15.3891 15.5529 14.3558C16.383 13.3224 17.4487 12.6615 18.75 12.3731V11.75C18.75 11.4028 18.8714 11.1077 19.1143 10.8646C19.3571 10.6215 19.6519 10.5 19.9988 10.5C20.3457 10.5 20.641 10.6215 20.8846 10.8646C21.1282 11.1077 21.25 11.4028 21.25 11.75V12.3731C22.5512 12.6615 23.6169 13.3224 24.4471 14.3558C25.2772 15.3891 25.6922 16.5782 25.6922 17.9231V25.3846H27.5V26.8846H12.5ZM19.9983 29.6923C19.5007 29.6923 19.0753 29.5153 18.7221 29.1613C18.3689 28.8073 18.1923 28.3817 18.1923 27.8846H21.8077C21.8077 28.3833 21.6305 28.8093 21.2761 29.1625C20.9218 29.5157 20.4959 29.6923 19.9983 29.6923Z" fill="white"/>
</g>
<rect x="20" width="20" height="20" rx="10" fill="#C01A20"/>
<path d="M31 5.43945V14H29.5879V7.11523L27.4961 7.82422V6.6582L30.8301 5.43945H31Z" fill="white"/>
</svg>
